<?xml version="1.0" encoding="utf-8"?>
<!-- Generator: Adobe Illustrator 23.0.3, SVG Export Plug-In . SVG Version: 6.00 Build 0)  -->
<svg version="1.1" id="Layer_2" xmlns="http://www.w3.org/2000/svg" xmlns:xlink="http://www.w3.org/1999/xlink" x="0px" y="0px"
	 viewBox="0 0 240 240" style="enable-background:new 0 0 240 240;" xml:space="preserve">
<style type="text/css">
	.st0{fill:#0A2767;}
	.st1{fill:#0364B8;}
	.st2{fill:#0078D4;}
	.st3{fill:#28A8EA;}
	.st4{fill:#14447D;}
	.st5{fill:url(#SVGID_1_);}
	.st6{opacity:0.5;fill:#0A2767;enable-background:new    ;}
	.st7{fill:#1490DF;}
	.st8{opacity:0.1;enable-background:new    ;}
	.st9{opacity:5.000000e-02;enable-background:new    ;}
	.st10{opacity:0.2;enable-background:new    ;}
	.st11{fill:url(#SVGID_2_);}
	.st12{fill:#FFFFFF;}
	.st13{fill:#50D9FF;}
</style>
<g>
	<path class="st0" d="M220,124.7c0-1.6-0.8-3-2.1-3.8h0l-0.1,0l-69.3-41c-0.3-0.2-0.6-0.4-0.9-0.6c-2.7-1.4-5.9-1.4-8.5,0
		c-0.3,0.2-0.6,0.4-0.9,0.6l-69.3,41l-0.1,0c-2.1,1.3-2.8,4.1-1.5,6.2c0.4,0.6,0.9,1.1,1.6,1.5l69.3,41c0.3,0.2,0.6,0.4,0.9,0.6
		c2.7,1.4,5.9,1.4,8.5,0c0.3-0.2,0.6-0.4,0.9-0.6l69.3-41C219.2,127.7,220,126.3,220,124.7z"/>
	<path class="st1" d="M76.8,97.3h45.5v41.7H76.8V97.3z M210.7,54.9V35.8c0.1-4.8-3.7-8.7-8.4-8.8h-118c-4.8,0.1-8.5,4.1-8.4,8.8
		v19.1l69.8,18.6L210.7,54.9z"/>
	<path class="st2" d="M75.8,54.9h46.5v41.9H75.8V54.9z"/>
	<path class="st3" d="M168.8,54.9h-46.5v41.9l46.5,41.9h41.9V96.7L168.8,54.9z"/>
	<path class="st2" d="M122.3,96.7h46.5v41.9h-46.5V96.7z"/>
	<path class="st1" d="M122.3,138.6h46.5v41.9h-46.5V138.6z"/>
	<path class="st4" d="M76.8,138.9h45.5v37.9H76.8V138.9z"/>
	<path class="st2" d="M168.8,138.6h41.9v41.9h-41.9V138.6z"/>
	
		<linearGradient id="SVGID_1_" gradientUnits="userSpaceOnUse" x1="143.2556" y1="-788.6824" x2="143.2556" y2="-700.3101" gradientTransform="matrix(1 0 0 1 0 913.3334)">
		<stop  offset="0" style="stop-color:#35B8F1"/>
		<stop  offset="1" style="stop-color:#28A8EA"/>
	</linearGradient>
	<path class="st5" d="M217.9,128.3L217.9,128.3l-69.4,39c-0.3,0.2-0.6,0.4-0.9,0.5c-1.2,0.6-2.5,0.9-3.8,0.9l-3.8-2.2
		c-0.3-0.2-0.6-0.3-0.9-0.5l-70.2-40.1h0l-2.3-1.3v78.9c0,5.3,4.3,9.5,9.6,9.5h134.4c0.1,0,0.1,0,0.2,0c1.1-0.1,2.2-0.3,3.3-0.7
		c0.5-0.2,0.9-0.4,1.3-0.7c0.3-0.2,0.8-0.6,0.8-0.6c2.4-1.8,3.8-4.5,3.8-7.5v-78.9C220,126.2,219.2,127.6,217.9,128.3z"/>
	<path class="st6" d="M216.3,124.3v4.8l-72.5,49.9l-75-53.1c0,0,0,0,0,0l0,0l-6.9-4.1v-3.5l2.8,0l6,3.4l0.1,0l0.5,0.3
		c0,0,70.5,40.2,70.7,40.3l2.7,1.6c0.2-0.1,0.5-0.2,0.7-0.3c0.1-0.1,70-39.4,70-39.4L216.3,124.3z"/>
	<path class="st7" d="M217.9,128.3L217.9,128.3l-69.4,39c-0.3,0.2-0.6,0.4-0.9,0.5c-2.7,1.3-5.8,1.3-8.5,0c-0.3-0.2-0.6-0.3-0.9-0.5
		l-69.3-39l-0.1-0.1c-1.3-0.7-2.2-2.1-2.2-3.6v78.9c0,5.3,4.3,9.5,9.6,9.5c0,0,0,0,0,0h134.3c5.3,0,9.6-4.2,9.6-9.5c0,0,0,0,0,0
		v-78.9C220,126.2,219.2,127.6,217.9,128.3z"/>
	<path class="st8" d="M149.5,166.7l-1,0.6c-0.3,0.2-0.6,0.4-0.9,0.5c-1.1,0.6-2.4,0.9-3.7,1l26.4,31.2l46,11.1
		c1.3-1,2.3-2.2,2.9-3.6L149.5,166.7z"/>
	<path class="st9" d="M154.2,164.1l-5.7,3.2c-0.3,0.2-0.6,0.4-0.9,0.5c-1.1,0.6-2.4,0.9-3.7,1l12.4,34.1l60,8.2
		c2.4-1.8,3.8-4.6,3.8-7.5v-1L154.2,164.1z"/>
	<path class="st3" d="M76.2,213h134.2c2.1,0,4.1-0.6,5.7-1.9L140,166.6c-0.3-0.2-0.6-0.3-0.9-0.5l-70.2-40.1h0l-2.3-1.3v78.6
		C66.5,208.7,70.9,213,76.2,213C76.2,213,76.2,213,76.2,213z"/>
	<path class="st8" d="M131.6,72.7v99.2c0,3.5-2.1,6.6-5.3,7.9c-1,0.4-2.1,0.7-3.2,0.7H66.5V68.8h9.3v-4.7h47.3
		C127.8,64.2,131.6,68,131.6,72.7z"/>
	<path class="st10" d="M127,77.4v99.2c0,1.1-0.2,2.2-0.7,3.3c-1.3,3.2-4.4,5.3-7.8,5.3h-52V68.8h52c1.3,0,2.7,0.3,3.9,1
		C125.2,71.3,127,74.2,127,77.4z"/>
	<path class="st10" d="M127,77.4v89.9c0,4.7-3.8,8.5-8.5,8.5h-52v-107h52c1.3,0,2.7,0.3,3.9,1C125.2,71.3,127,74.2,127,77.4z"/>
	<path class="st10" d="M122.3,77.4v89.9c0,4.7-3.8,8.5-8.5,8.5H66.5v-107h47.3C118.5,68.8,122.3,72.7,122.3,77.4
		C122.3,77.4,122.3,77.4,122.3,77.4z"/>
	
		<linearGradient id="SVGID_2_" gradientUnits="userSpaceOnUse" x1="37.776" y1="-851.158" x2="104.5495" y2="-735.509" gradientTransform="matrix(1 0 0 1 0 913.3334)">
		<stop  offset="0" style="stop-color:#1784D9"/>
		<stop  offset="0.5" style="stop-color:#107AD5"/>
		<stop  offset="1" style="stop-color:#0A63C9"/>
	</linearGradient>
	<path class="st11" d="M28.5,68.8h85.3c4.7,0,8.5,3.8,8.5,8.5v85.3c0,4.7-3.8,8.5-8.5,8.5H28.5c-4.7,0-8.5-3.8-8.5-8.5V77.4
		C20,72.7,23.8,68.8,28.5,68.8z"/>
	<path class="st12" d="M46.6,104.6c2.1-4.5,5.5-8.2,9.7-10.8c4.7-2.7,10.1-4,15.5-3.9c5-0.1,10,1.2,14.3,3.7c4.1,2.4,7.4,6,9.5,10.3
		c2.3,4.7,3.4,9.9,3.3,15.1c0.1,5.5-1.1,10.9-3.4,15.8c-2.1,4.4-5.5,8.1-9.8,10.6c-4.5,2.6-9.7,3.9-14.9,3.8
		c-5.1,0.1-10.2-1.2-14.6-3.7c-4.1-2.4-7.5-6-9.6-10.3c-2.3-4.6-3.4-9.8-3.4-14.9C43.2,114.9,44.4,109.5,46.6,104.6z M57,129.9
		c1.1,2.8,3,5.3,5.5,7.1c2.5,1.8,5.5,2.7,8.6,2.6c3.3,0.1,6.5-0.8,9.1-2.7c2.4-1.8,4.3-4.2,5.3-7.1c1.2-3.2,1.7-6.5,1.7-9.9
		c0-3.4-0.5-6.8-1.6-10c-1-2.9-2.8-5.5-5.2-7.4c-2.6-1.9-5.8-2.9-9.1-2.8c-3.1-0.1-6.2,0.8-8.8,2.6c-2.5,1.8-4.4,4.3-5.6,7.1
		C54.5,116,54.5,123.3,57,129.9L57,129.9z"/>
	<path class="st13" d="M168.8,54.9h41.9v41.9h-41.9V54.9z"/>
</g>
</svg>
