<?xml version="1.0" encoding="utf-8"?>
<!-- Generator: Adobe Illustrator 23.0.3, SVG Export Plug-In . SVG Version: 6.00 Build 0)  -->
<svg version="1.1" xmlns="http://www.w3.org/2000/svg" xmlns:xlink="http://www.w3.org/1999/xlink" x="0px" y="0px"
	 viewBox="0 0 240 240" style="enable-background:new 0 0 240 240;" xml:space="preserve">
<style type="text/css">
	.st0{opacity:0.75;}
	.st1{fill:#365798;}
	.st2{fill:#A5B6D9;}
	.st3{fill:#A5B6D8;}
	.st4{fill:#21314F;}
</style>
<g id="PC" class="st0">
	<g>
		<path class="st1" d="M49,49.2l77-28.7l65,9.8V206l0,5l-64.4,8.6L49,193.7V49.2z"/>
		<path class="st2" d="M53.3,189.8L53.1,53.3l66.7-24.7l-0.2,182L53.3,189.8z M131,210.9l0-181.3l53.2,7.2v167.5L131,210.9z"/>
		<path class="st1" d="M86,147.1l-29.9-1.7l-0.2-52.6L86,90L86,147.1z M88.8,89.7l26.8-3.3l-0.2,61.7l-26.6-0.8L88.8,89.7z
			 M55.7,89.3V55.9l30.2-9.9l0.2,39.8L55.7,89.3z M115.9,34.8l0.2,47.1l-27.2,3.5V44.6L115.9,34.8z M72.5,191v-40.3l24.3,1.6v46.1
			L72.5,191z M114.9,204.8l-3-1.1c0.7-3.9-3.2-5.5-3.3-1l-3.2-0.9c-0.2-3.8-2.4-5.4-3.6-1.2l-1.7-0.5l-0.1-47.7l2.1,0.2
			c-0.7,4.7,4,4.8,3.5,0.3l3.5,0.2c-0.8,4.9,4,5,3.5,0.2l2.2,0.1L114.9,204.8z M56.3,149.6l14.1,1l-0.1,18.5l-14.1-1.9L56.3,149.6z
			 M70.6,171.7l-0.2,18.9l-14.2-3.5v-17.6L70.6,171.7z M133.8,32.7l47.8,6.3v163l-47.8,6L133.8,32.7z"/>
		<path class="st2" d="M96.9,107.7c0-0.9,0-1.7,0.5-2.4c1,0,0.8,1.7,0.9,2.5c1.8,0.9,0.8-1.9,1.8-2.6c1.3-0.1-0.1,2.7,1.2,2.7
			c0.8,0,0.7-0.4,0.7-1.1c0-0.7,0.1-1.3,0.7-1.8c1.4,0.5,0.1,3.1,1.9,2.7c0-1.1-0.2-2.4,1-3c0.4,0.9,0,2.5,0.9,2.8
			c1.3,0.3,1.4,0.6,1.8,1.8c0.1,0.5-0.1,0.8,0.5,1.1c0.6,0.3,1.3,0.2,1.3,1c0,1.1-0.5,0.9-1.3,0.9c-0.3,0-0.4,0.6-0.4,0.8
			c-0.1,0.8,0.1,1,0.9,1.2c1,0.3,0.8,0.6,0.8,1.5c0,0.5,0.1,0.2-0.5,0.3c-1,0.2-1.2,0.1-1.1,1.2c0.1,1.3,2.3,0.2,1.7,2.2
			c-0.3,0.8-1.6,0.2-1.6,0.9c0,0.9-0.2,1.3,0.9,1.4c1.1,0.1,1,1.6,0.1,1.9c-0.6,0.2-0.8,0-1,0.7c-0.2,0.7-0.2,1.4-0.4,2.1
			c-1,0.8-2-0.3-2,1.4c0,0.5-0.1,0.8-0.2,1.3c-0.2,0.9-0.4,0.1-1,0.3c-0.2-0.2,0-1.4,0-1.6c0-0.8-0.3-1-1.2-0.9
			c-0.1,1,0,2.1-0.8,2.8c-0.5-0.3-0.7-0.8-0.7-1.4c-0.1-1.1,0-1.1-1.1-1.4c-0.2,0.5-0.3,2-0.3,2.5c-0.9,0.4-1-0.9-1-1.5
			c0-0.5,0.2-1-0.4-1.1c-0.6-0.2-0.8,0.1-0.8,0.7c0,1-0.1,1.5-0.9,2.1c-0.3-0.9-0.1-2.5-1.1-2.8c-1.2-0.3-1.4-1.2-1.4-2.3
			c0-1.3-1.5-0.1-1.5-1.4c0-0.1-0.1-0.8,0-0.9c0.5-0.4,1,0.2,1.5,0c0.2-0.6,0.3-1.5-0.4-1.7c-0.7-0.2-1.3-0.2-1.2-1
			c0.2-1,0-0.9,1.1-1c0.8-0.1,0.5-0.9,0.5-1.4c-1.1-0.5-1.5,0.1-1.5-1.3c0-1-0.1-0.9,0.9-0.9c0.8,0,0.6-0.3,0.6-1.1
			c0-0.9-1.6-0.1-1.6-1.3c0-0.5,0.2-1,0.7-1.1c0.9-0.3,1-0.4,1-1.3C94.9,108.5,95.8,108.3,96.9,107.7L96.9,107.7L96.9,107.7
			L96.9,107.7z M64.2,83.9L68.3,68l-2.7,1.3l3.7-13.6l4.4-1.3l-3.3,9.1l3.3-1.8L64.2,83.9L64.2,83.9L64.2,83.9z"/>
		<path class="st3" d="M96.8,75.2c0.2-0.5,0.4-1.1,0.7-1.7c2.4,1,4.5,1.8,7,0.3c2.4-1.4,3.9-4.2,4.8-6.7c1.8-4.9,1.8-11.5-1.4-15.8
			c-3.9-5.2-9.4-2.5-12,2.4c-0.8,1.5-1.9,5.4-2.1,7.8c-0.1,1.2,0,2.4,0.1,3.7c0.2,1.4,0.9,2.8,0.7,4.2c-0.1,0.4-0.3,0.7-0.8,0.8
			C91,65.5,92.6,57.8,94.7,53c2.1-4.7,8.2-9.5,13-5c4.4,4.2,4.8,11.7,3.7,17.2c-1.1,4.9-4.5,12.3-10.6,11.7
			C99.7,76.8,97.5,76.3,96.8,75.2L96.8,75.2L96.8,75.2z M100.4,67.3c-0.5-2,2-3.3,2.5-4.9c0.3-0.9,0-1.6-0.4-2.4
			c-0.8-0.4-1.5-0.2-1.9,0.7c-0.5,1.5-1.1,2.6-2.2,3.8c-0.6-2.4-0.2-5,1.1-7c0.7-1.1,2.2-1.6,3.3-1.2c3.5,1.3,2.4,7.3,0.9,9.7
			C103.1,67.3,101.7,67.3,100.4,67.3L100.4,67.3z M100.9,62.9c0.1,0.1,0.1,0.2,0,0.3c-1.6,3.7-3.2,7.3-4.8,11
			c-0.2-0.1-0.2-0.1-0.3-0.1c-0.6-0.7-1-1.5-1.3-2.2c-0.2-0.3,0-0.6,0.2-0.9l5.6-7.5C100.5,63.3,100.7,63,100.9,62.9L100.9,62.9
			L100.9,62.9z"/>
		<path class="st2" d="M81.4,178.8c-1,2-0.8,4.3-1,6.5c-1.7-0.4-2.9-3.7-3.2-5.1c0.3-1.7,1.2-3,2.2-4.3c0.5-0.6,0.6-1.2,0.3-2
			c-0.1-0.3-0.1-0.6-0.3-0.8c-1.5,0.3-2.4,1.4-3.4,2.4c-1.1-1.2-0.9-5.7,0-7.1c1.4-0.3,2.7,0.2,3.9,1c0.9-0.9,1-1.8,0.2-2.7
			c-0.6-0.7-2.5-1.5-2.9-2.2c-0.3-1.1,1.8-4.7,3-4.7c1.3,2,2.1,4.2,2.6,6.5c0.5,0.2,0.9,0.4,1.4,0.3c0.3-2.7-0.3-5.2-1.2-7.7
			c0.1-0.1,0.1-0.2,0.2-0.2c1.5,0.1,2.9,0.4,4,1.5c2.6,2.4-2,7.2,0.1,10c1.8-1.8,1.8-4,3.2-5.8c1.4,1.8,2.6,5.3,2.4,7.6
			c-1.2,1.4-2.1,2.2-5,2.4c0.1,0.6-0.3,1.2-0.1,2c1.5,1.6,3.2,1.4,5.2,1.2c0.3,1.4-1.1,5.8-2.2,6.8c-2.2-1-3.3-3.1-4.5-5
			c-0.4,0.3-0.8,0.6-1.1,1c0.3,2.2,3.1,5,2.7,7c-0.9,0.4-2,0.7-3,0.6c-1.1-0.2-1.5-0.7-1.8-1.9C82.4,183.7,83.5,180.6,81.4,178.8
			L81.4,178.8z M101.7,182.6v-10.9l11.6,1.9v11.6L101.7,182.6z M101.7,158.7l11.7,1.2v11.5l-11.7-1.7V158.7z M113.3,187.1v11.5
			l-11.6-3.2v-10.9L113.3,187.1z M58.3,181.6v-5l2.4,0.3l2.8-2.8l0.1,11.6l-2.8-3.6L58.3,181.6z"/>
		<path class="st2" d="M64.3,177.6c0.2-0.1,0.4-0.1,0.6,0c0.5,1.1,0.7,2.3,0.6,3.5c0,0.5-0.2,0.9-0.3,1.3c-0.1,0.3-0.3,0.5-0.6,0.7
			c-0.2-0.2-0.2-0.4-0.1-0.7c0.1-0.6,0.3-1.3,0.3-1.9C64.8,179.5,64.5,178.6,64.3,177.6L64.3,177.6L64.3,177.6L64.3,177.6z
			 M65.5,184.9c-0.1-0.6,0.2-1.1,0.3-1.6c0.2-0.8,0.4-1.5,0.5-2.3c0.1-1-0.2-1.9-0.4-2.8c-0.1-0.4-0.3-0.9-0.4-1.3
			c-0.1-0.3-0.1-0.5,0-0.8c0.2,0,0.3,0.1,0.4,0.2c0.4,0.7,0.6,1.5,0.8,2.3c0.2,0.9,0.1,1.9,0.2,2.8c0.1,0.6-0.1,1.2-0.2,1.8
			C66.5,183.9,66.2,184.5,65.5,184.9L65.5,184.9L65.5,184.9z M66.8,186.6c-0.3-0.6-0.2-1.1,0-1.7c0.5-1.4,1-2.8,0.9-4.3
			c-0.1-1.3-0.3-2.6-0.8-3.8c-0.2-0.5-0.4-1-0.6-1.5c0.1-0.2,0.3-0.3,0.6-0.3c0.3,0.7,0.7,1.4,0.9,2.2
			C68.6,180.4,68.6,183.6,66.8,186.6L66.8,186.6L66.8,186.6z"/>
		<path class="st2" d="M151.7,200.3l-12.1,1.4l0-65l12.1-0.7V200.3z M167.1,112.1c-1.9,8.6-11.3,7.8-13.4,0.5l-15.9,0.5l0-11.7
			l15.3-0.6c3.9-9.3,11.1-7.9,14,0l11.4,0.1l0.3,10.6L167.1,112.1z M137.6,71.5v-4.1l41.5,1.3l0,3.3L137.6,71.5z"/>
		<path class="st2" d="M58,162.7l10.7,1.7l-3.3-7.4l-1.4,2.6l-2.3-5L58,162.7L58,162.7z M69,155.9c0,0.8-0.6,1.4-1.4,1.4
			s-1.4-0.6-1.4-1.4s0.6-1.4,1.4-1.4S69,155.1,69,155.9z"/>
		<ellipse class="st1" cx="160.4" cy="106.8" rx="5.3" ry="8.9"/>
		<path class="st2" d="M79.5,128.3c-0.3,0.5-0.3,1.1,0.1,1.6l-4.5,6.9l1.1,0l4.3-6.3c0.5,0.1,1.1-0.2,1.5-0.7c0.4-0.7,0.2-1.5-0.5-2
			S79.9,127.6,79.5,128.3z M60.5,133.4l-1.7,2.2l0.8,0.7l1.4-1.9l1.2,0.1c0.1,0.1,0.2,0.2,0.3,0.3c0.6,0.6,1.5,0.6,2,0
			c0.6-0.6,0.6-1.5,0-2c-0.6-0.6-1.5-0.6-2,0c-0.2,0.2-0.3,0.4-0.4,0.6L60.5,133.4z M63.9,121.6c-0.8,0-1.4,0.6-1.4,1.4
			c0,0.8,0.6,1.4,1.4,1.4c0.6,0,1.2-0.4,1.3-1l7.6,0.2l3,3.7c0,0.1-0.1,0.3-0.1,0.4c0,0.8,0.7,1.4,1.4,1.4s1.4-0.7,1.4-1.4
			c0-0.8-0.7-1.4-1.4-1.4c-0.3,0-0.5,0.1-0.7,0.2l-3.2-3.9l-8.2-0.2C64.8,121.8,64.4,121.6,63.9,121.6L63.9,121.6z M66.2,126.2
			c-0.8,0-1.4,0.7-1.4,1.5c0,0.8,0.7,1.4,1.5,1.4c0.6,0,1-0.4,1.3-0.8l3.8-0.1c0.2,0.5,0.8,0.8,1.3,0.8c0.8,0,1.4-0.7,1.4-1.5
			c0-0.8-0.7-1.4-1.5-1.4c-0.6,0-1.1,0.4-1.3,1l-3.7,0.1C67.4,126.6,66.9,126.2,66.2,126.2L66.2,126.2z M61.8,129.1
			c0,0.8-0.6,1.4-1.4,1.4c-0.8,0-1.4-0.6-1.4-1.4s0.6-1.4,1.4-1.4C61.2,127.7,61.8,128.3,61.8,129.1z M64,102.4
			c-0.6,0-1.1,0.4-1.3,1l-3.9,0.2l0.1,1.1l3.9-0.2c0.2,0.5,0.8,0.9,1.4,0.8c0.8,0,1.4-0.7,1.4-1.5C65.5,103,64.8,102.4,64,102.4
			L64,102.4z M73.7,105.9c-0.8,0-1.4,0.7-1.4,1.5c0,0.8,0.7,1.4,1.5,1.4c0.6,0,1-0.4,1.3-0.8l4.3-0.1c0.2,0.5,0.8,0.8,1.3,0.8
			c0.8,0,1.4-0.7,1.4-1.5c0-0.8-0.7-1.4-1.5-1.4c-0.6,0-1.1,0.4-1.3,1l-4.2,0.1C74.9,106.2,74.3,105.8,73.7,105.9L73.7,105.9z
			 M66.1,100.6l-0.7,0.8l3.4,2.9l13.9-0.5l-0.1-1.1l-13.4,0.5L66.1,100.6z M58.9,109.5l0-1l11.7-0.7l12.3,17.8l-0.9,0.6l-12-17.3
			L58.9,109.5z M81.7,113.9c0.4-0.4,0.4-1.1,0.2-1.6l1.1-1.6l0.1-1.5l-2,2.5c-0.5-0.2-1.1,0-1.5,0.4c-0.5,0.6-0.5,1.5,0.1,2
			C80.3,114.5,81.2,114.5,81.7,113.9L81.7,113.9z M76.1,113.9c0.3,0.5,0.9,0.7,1.5,0.6l5.3,7.6l0-1.7l-4.4-6.5
			c0.3-0.5,0.3-1.1,0-1.6c-0.4-0.7-1.3-0.8-2-0.3C75.8,112.4,75.7,113.3,76.1,113.9L76.1,113.9z M70.2,112.3c-0.6,0-1.1,0.4-1.3,1
			l-9.8,0.5l0.1,1.1l9.8-0.5c0.2,0.5,0.8,0.9,1.4,0.8c0.8,0,1.4-0.7,1.4-1.5C71.6,112.9,70.9,112.3,70.2,112.3L70.2,112.3z
			 M73.2,118l-14,0.3l0,1.1l13.5-0.3l3,3.8c0,0.1-0.1,0.3-0.1,0.4c0,0.8,0.7,1.4,1.4,1.4c0.8,0,1.4-0.7,1.4-1.4
			c0-0.8-0.7-1.4-1.4-1.4c-0.3,0-0.5,0.1-0.7,0.2L73.2,118z M79.7,136.1c0.2,0.4,0.9,0,1,0.6c-0.2,0.7-1.5,0.1-2,0.2
			c-0.2-0.7,1.4-2.6,1.9-3.2c0.5-0.2,1.6,0,2.2,0c0.1,0.5,0.1,0.9-0.3,1.3c-0.6,0-1.1-0.2-1.7-0.3C80.4,135.1,80.1,135.6,79.7,136.1
			L79.7,136.1z M60.5,124.5h-1.4v-1.1c1.1,0,1.7-0.3,2.3,0.7c1.1,1.8,2.2,3.6,3.3,5.4c0.5,0.9,1.1,1.8,1.6,2.7
			c0.8,1.3,1,1.4,2.5,1.5c1.1,0.1,2.2,0.1,3.3,0.1c1.1,0,1.1-0.9,2.2-0.8c0.9,0.9,0.9,2,0,2.9c-1,0.1-0.9-1-1.7-1h-3.3
			c-1.6,0-2.1,0.4-3-1C64.4,130.6,62.5,127.5,60.5,124.5L60.5,124.5z"/>
		<path class="st1" d="M100.1,60.6c0,0.5-0.3,0.9-0.6,0.9c-0.3,0-0.6-0.4-0.6-0.9c0-0.5,0.3-0.9,0.6-0.9
			C99.8,59.6,100.1,60,100.1,60.6z M101.5,58.4c0,0.5-0.3,0.9-0.6,0.9c-0.3,0-0.6-0.4-0.6-0.9c0-0.5,0.3-0.9,0.6-0.9
			C101.3,57.4,101.5,57.8,101.5,58.4z M103.9,58.4c0,0.5-0.3,0.9-0.6,0.9c-0.3,0-0.6-0.4-0.6-0.9c0-0.5,0.3-0.9,0.6-0.9
			C103.6,57.4,103.9,57.8,103.9,58.4z M102.6,65.8c0,0.5-0.3,0.9-0.6,0.9c-0.3,0-0.6-0.4-0.6-0.9c0-0.5,0.3-0.9,0.6-0.9
			C102.3,64.9,102.6,65.3,102.6,65.8z M104.1,64c0,0.5-0.3,0.9-0.6,0.9c-0.3,0-0.6-0.4-0.6-0.9c0-0.5,0.3-0.9,0.6-0.9
			C103.8,63,104.1,63.5,104.1,64z M104.8,61c0,0.5-0.3,0.9-0.6,0.9c-0.3,0-0.6-0.4-0.6-0.9c0-0.5,0.3-0.9,0.6-0.9
			C104.5,60.1,104.8,60.5,104.8,61z"/>
	</g>
</g>
<g id="Text">
	<path class="st4" d="M48.6,35.6v8.2c0,10.1-4.7,15.7-14.4,15.7h-4.6v23.8H20V20h14.2C43.8,20,48.6,25.5,48.6,35.6L48.6,35.6
		L48.6,35.6z M29.6,29v21.5h4.6c3.1,0,4.7-1.4,4.7-6V35c0-4.5-1.7-6-4.7-6L29.6,29L29.6,29z"/>
	<path class="st4" d="M81.4,59.5v8.2c0,9.9-4.9,15.6-14.4,15.6c-9.5,0-14.4-5.7-14.4-15.6V35.6C52.7,25.7,57.6,20,67,20
		c9.5,0,14.4,5.7,14.4,15.6v6h-9.1V35c0-4.4-1.9-6.1-5-6.1s-5,1.7-5,6.1v33.5c0,4.4,1.9,6,5,6c3.1,0,5-1.6,5-6v-8.8L81.4,59.5
		L81.4,59.5L81.4,59.5z"/>
	<path class="st4" d="M35.2,116.8h13.5v19.6c0,9.9-4.9,15.6-14.4,15.6S20,146.3,20,136.4v-32.3c0-9.9,4.9-15.6,14.4-15.6
		s14.4,5.7,14.4,15.6v6h-9.1v-6.6c0-4.4-1.9-6.1-5-6.1c-3.1,0-5,1.7-5,6.1V137c0,4.4,1.9,6,5,6c3.1,0,5-1.6,5-6v-11.4h-4.4
		L35.2,116.8L35.2,116.8L35.2,116.8z"/>
	<path class="st4" d="M86.1,151.3h-9.7l-1.7-11.2H62.9l-1.7,11.2h-8.8l9.8-61.9h14.1L86.1,151.3L86.1,151.3z M64.1,131.7h9.3
		l-4.6-31.3L64.1,131.7L64.1,131.7z"/>
	<polygon class="st4" points="111,133.4 117.6,89.4 131,89.4 131,151.3 121.9,151.3 121.9,106.9 115.2,151.3 106.1,151.3 
		98.9,107.5 98.9,151.3 90.5,151.3 90.5,89.3 103.9,89.3 111,133.3 111,133.3 	"/>
	<polygon class="st4" points="138,89.4 147.6,89.4 147.6,151.3 138,151.3 138,89.4 138,89.4 	"/>
	<polygon class="st4" points="163.2,106.5 163.2,151.3 154.5,151.3 154.5,89.3 166.6,89.3 176.6,126.4 176.6,89.3 185.1,89.3 
		185.1,151.3 175.2,151.3 163.2,106.4 163.2,106.4 	"/>
	<path class="st4" d="M206.5,116.8H220v19.6c0,9.9-4.9,15.6-14.4,15.6c-9.5,0-14.4-5.7-14.4-15.6v-32.3c0-9.9,4.9-15.6,14.4-15.6
		c9.5,0,14.4,5.7,14.4,15.6v6h-9.1v-6.6c0-4.4-1.9-6.1-5-6.1s-5,1.7-5,6.1v33.5c0,4.4,1.9,6,5,6c3.1,0,5-1.6,5-6v-11.4h-4.4
		L206.5,116.8L206.5,116.8L206.5,116.8z"/>
	<polygon class="st4" points="57.6,158.1 67.2,158.1 57.7,220 49,220 43.8,185.9 38.9,219.9 30.2,219.9 20,158 29.6,158 34.4,191.1 
		38.8,158 48.4,158 53.1,191.1 57.6,158 57.6,158 57.6,158 	"/>
	<rect x="71.9" y="158" class="st4" width="9.6" height="61.9"/>
	<polygon class="st4" points="101.2,195.3 98.2,200.9 98.2,220 88.6,220 88.6,158 98.2,158 98.2,185 110.8,158.1 120.5,158.1 
		107,185.7 120.5,220 110.6,220 101.2,195.3 	"/>
	<rect x="124.8" y="158" class="st4" width="9.6" height="61.9"/>
</g>
</svg>
