<?xml version="1.0" encoding="utf-8"?>
<!-- Generator: Adobe Illustrator 23.0.3, SVG Export Plug-In . SVG Version: 6.00 Build 0)  -->
<svg version="1.1"
	 id="Bold" inkscape:version="1.0 (4035a4fb49, 2020-05-01)" sodipodi:docname="reddit.svg" xmlns:cc="http://creativecommons.org/ns#" xmlns:dc="http://purl.org/dc/elements/1.1/" xmlns:inkscape="http://www.inkscape.org/namespaces/inkscape" xmlns:rdf="http://www.w3.org/1999/02/22-rdf-syntax-ns#" xmlns:sodipodi="http://sodipodi.sourceforge.net/DTD/sodipodi-0.dtd" xmlns:svg="http://www.w3.org/2000/svg"
	 xmlns="http://www.w3.org/2000/svg" xmlns:xlink="http://www.w3.org/1999/xlink" x="0px" y="0px" viewBox="0 0 240 240"
	 style="enable-background:new 0 0 240 240;" xml:space="preserve">
<style type="text/css">
	.st0{fill:#FC573B;}
</style>
<path id="path4_1_" class="st0" d="M197.7,97.6c-6.3,0-11.9,2.7-16,6.8c-15.1-10.6-35.3-17.4-57.8-18.1l11.7-53.4l37.2,8.5
	c0,9.2,7.4,16.8,16.5,16.8c9.3,0,16.7-7.7,16.7-17c0-9.2-7.4-17-16.7-17c-6.5,0-12.1,4-14.9,9.4l-41.1-9.2c-2.1-0.6-4.1,0.9-4.6,3
	l-12.8,58.9c-22.3,0.9-42.4,7.7-57.5,18.3c-4.1-4.3-9.9-7-16.2-7c-23.4,0-31.1,31.9-9.7,42.8c-0.8,3.4-1.1,7-1.1,10.6
	c0,35.8,39.8,64.9,88.7,64.9c49.1,0,88.9-29.1,88.9-64.9c0-3.6-0.4-7.4-1.3-10.7C228.8,129.3,221,97.6,197.7,97.6L197.7,97.6z
	 M66.7,142.7c0-9.4,7.4-17,16.7-17c9.1,0,16.5,7.5,16.5,17c0,9.2-7.4,16.8-16.5,16.8C74.1,159.5,66.7,151.9,66.7,142.7z M157,182.7
	c-15.3,15.6-58.6,15.6-74,0c-1.7-1.5-1.7-4.2,0-5.9c1.5-1.5,4.1-1.5,5.6,0c11.7,12.2,50.6,12.4,62.8,0c1.5-1.5,4.1-1.5,5.6,0
	C158.7,178.5,158.7,181.2,157,182.7L157,182.7z M156.7,159.5c-9.1,0-16.5-7.5-16.5-16.8c0-9.4,7.4-17,16.5-17
	c9.3,0,16.7,7.5,16.7,17C173.3,151.9,165.9,159.5,156.7,159.5z"/>
</svg>
