<?xml version="1.0" encoding="utf-8"?>
<!-- Generator: Adobe Illustrator 23.0.3, SVG Export Plug-In . SVG Version: 6.00 Build 0)  -->
<svg version="1.1"
	 id="Layer_1" xmlns:cc="http://creativecommons.org/ns#" xmlns:dc="http://purl.org/dc/elements/1.1/" xmlns:inkscape="http://www.inkscape.org/namespaces/inkscape" xmlns:rdf="http://www.w3.org/1999/02/22-rdf-syntax-ns#" xmlns:sodipodi="http://sodipodi.sourceforge.net/DTD/sodipodi-0.dtd" xmlns:svg="http://www.w3.org/2000/svg"
	 xmlns="http://www.w3.org/2000/svg" xmlns:xlink="http://www.w3.org/1999/xlink" x="0px" y="0px" viewBox="0 0 240 240"
	 style="enable-background:new 0 0 240 240;" xml:space="preserve">
<style type="text/css">
	.st0{fill:#282828;}
</style>
<path id="Wikipedia" class="st0" d="M219.9,50.4c0,0-31,0-41.3,0l-3,0.5v4c0,0.5,1.4,0.9,1.8,1.1c0.4,0.3,1.4,0.5,1.8,0.5l3.7,0.2
	c4.2,0.2,5.5,1.1,7.2,2.7c1.6,1.6,1.9,4.3,0.6,8.2L154.2,163l-1.4-0.4l-23.2-52.2c0.3-0.8,0.5-1.2,0.5-1.2l19-39.1
	c2.2-4.1,4.4-7.8,5.4-9.5c2-3.1,3-3.7,8.4-4c1.1,0,1.5-0.5,1.5-1.6v-4l-0.3-0.4c0,0-22.7-0.1-33.1,0l0,0.4v4c0,0.5-0.3,0.9,0.1,1.2
	c0.4,0.3,0.6,0.5,1,0.5l1.5,0.2c4.2,0.2,6.1,1.4,6.7,2.2c1,1.4,1.5,2.8-1,8.7l-14.6,32l-13.2-29.7c-4.3-9.5-5.4-12.4,1.1-13l1.8-0.4
	c1.3,0,1.1-0.5,1.1-1.4v-4.2l-0.1-0.3c0,0-24.2,0-35.3,0L80,51v4.2c0,0.9,0.9,1.2,2.6,1.4c6.1,0.9,6,1.6,12.1,14.8
	c0.9,2,3.6,7.9,3.6,7.9l13.8,29.8c0,0,1.6,3.8,4,9.8l-20,43.9l-1.1-0.3c0,0-31.1-72-40.1-96.1c-0.9-2.5-1.4-4.3-1.4-5.5
	c0-2.4,2-3.8,6-4l6.1-0.2c1.3,0,3.3-0.5,3.3-1.6v-4L67,50.6c0,0-38.1,0-45.8,0L20,51v4.2c0,0.7,1,1.2,2.7,1.4
	c4.7,0.3,7.9,1.1,9.4,2.5c1.5,1.4,3.1,4.9,5.2,10.4c11.3,29.8,35.3,83.1,47,113.4c3.4,8.3,7.6,9.6,12.7-0.3
	c5.3-10.8,16-34.7,23.7-52.3c7.3,17.6,17.2,41.4,22,52.2c3.8,8.6,8.1,9.5,12.5,0.3c11.5-28.1,45.2-112.7,45.2-112.7
	c1.5-4.2,3.5-7.4,6.1-9.7c2.6-2.3,6.5-3.6,11.9-3.8c1.1,0,1.5-0.6,1.5-1.6v-4L219.9,50.4L219.9,50.4z"/>
</svg>
